<?xml version="1.0" standalone="no"?>
<!DOCTYPE svg PUBLIC "-//W3C//DTD SVG 20010904//EN"
 "http://www.w3.org/TR/2001/REC-SVG-20010904/DTD/svg10.dtd">
<svg version="1.0" xmlns="http://www.w3.org/2000/svg"
 width="46.000000pt" height="46.000000pt" viewBox="0 0 46.000000 46.000000"
 preserveAspectRatio="xMidYMid meet">
<metadata>
Created by potrace 1.10, written by Peter Selinger 2001-2011
</metadata>
<g transform="translate(0.000000,46.000000) scale(0.100000,-0.100000)"
fill="#000000" stroke="none">
<path d="M71 353 c-46 -23 -93 -103 -61 -103 6 0 10 7 10 15 0 8 13 29 29 47
26 29 36 33 79 33 35 0 56 -6 71 -19 39 -36 19 -63 -23 -31 -28 21 -72 19 -96
-5 -11 -11 -20 -23 -20 -27 0 -5 -14 -16 -30 -25 -38 -22 -38 -38 1 -82 36
-42 85 -58 132 -45 41 11 80 51 75 76 -4 23 -50 29 -68 9 -19 -24 -66 -20 -84
6 -9 12 -19 19 -22 15 -12 -12 38 -57 64 -57 13 0 35 9 50 20 16 13 29 17 35
11 16 -16 -1 -41 -40 -57 -47 -20 -102 -6 -132 33 -27 34 -26 51 3 63 14 5 30
18 36 29 6 11 20 26 31 32 17 9 27 7 50 -10 32 -24 50 -26 67 -9 20 20 13 46
-18 68 -42 30 -97 35 -139 13z"/>
<path d="M289 341 c-33 -33 -36 -56 -13 -89 13 -18 25 -22 74 -22 84 0 118
-42 70 -90 -37 -37 -139 -14 -140 33 0 13 41 7 57 -8 18 -18 32 -16 47 8 14
21 -13 51 -40 44 -17 -4 -17 -6 4 -12 12 -4 22 -14 22 -21 0 -16 -16 -19 -25
-4 -3 6 -24 10 -46 10 -37 0 -40 -2 -33 -22 11 -37 33 -56 74 -63 49 -8 90 10
108 49 17 35 4 72 -30 86 -35 14 -74 48 -65 56 4 4 13 2 19 -4 7 -7 29 -12 50
-12 47 0 50 19 9 61 -41 41 -101 41 -142 0z m133 -13 c21 -21 22 -23 4 -26
-10 -2 -29 2 -42 8 -29 16 -54 7 -54 -20 0 -14 11 -26 33 -36 l32 -15 -45 7
c-52 7 -70 19 -70 45 0 56 98 81 142 37z"/>
</g>
</svg>
